<svg viewBox="0 0 1000 1000" xmlns="http://www.w3.org/2000/svg"><circle cx="500" cy="500" fill="#dc408e" r="500"/><g fill="#fff"><path d="m317.28 366.75h-73.62c-4.75 39.75-20.55 71.14-62.11 95.08a200.57 200.57 0 0 0 -23.49-18.52c37.27-20.1 52.62-43.14 56.69-76.56h-84.92v-26.2h87.17c.45-11.74.45-22.59.45-35.91-19.88 3.61-45.62 7.45-68.66 9.49a146 146 0 0 0 -7.68-22.36c54.88-5.42 111.57-17.85 137.54-28.69l19.66 21.92c-1.35 1.13-2.93 1.13-6.55 1.13a439.54 439.54 0 0 1 -49 13.33l9.94.67c-.45 2.49-2 4.52-6.1 5.42 0 12.88-.22 24.17-.67 35h71.36z"/><path d="m526.65 310.51v26.88h-48.11c-.45 1.58-2.26 2.71-4.51 2.93-7.68 48.56-27.11 93.05-72.95 120.16-6.1-5.2-17.85-13.1-25.07-17.39 42.68-23.27 63-63.69 68.66-105.7h-50.14a223.59 223.59 0 0 1 -32.75 43.14c-6.32-4.3-18.07-10.17-26-13.78 27.55-23.94 50.13-67.08 59.39-105.7l35 7.23c-.45 2-2.93 3.84-6.55 3.84a385.59 385.59 0 0 1 -15.36 38.39z"/><path d="m570.24 321.13c6.32 13.55 13.1 34.33 16 47.88l-21.91 6.09c-2.94-14-9-33.87-15.36-47.88zm131.44 5.19c-.67 1.81-2.71 3.16-5.64 2.94-18.52 66.62-53.53 105.92-105.04 126.74-2.94-4.52-10.17-13.55-15.36-17.84 48.33-18.07 82.21-54 97.34-121.06zm-77.46-14.68c4.74 13.78 9 35.46 10.84 49.69l-23 4.74a293.87 293.87 0 0 0 -11.06-49.91z"/><path d="m854.14 388c-18.75-10.84-48.34-24.85-70.7-33.88v105.68h-30.26v-198.52l37 1.8c-.23 2.71-2 5-6.78 5.65v63.69l5.65-7.68a708.57 708.57 0 0 1 81.08 35.46z"/><path d="m359.07 594 14.9 3.84a7.5 7.5 0 0 1 -1.8 4.07c-3.84 36.36-12.42 65.27-26 88.08a109.15 109.15 0 0 0 37.5 26.65 91.39 91.39 0 0 0 -17.62 21.68 119.19 119.19 0 0 1 -35.23-27.1 130 130 0 0 1 -36.59 27.55 92 92 0 0 0 -14.66-21.77 111.52 111.52 0 0 1 -11.52 22c-4.52-4.52-15.36-11.52-21.68-14.23a93.68 93.68 0 0 0 6.77-11.29l-18.29 8.81c-2.94-8.13-10.16-21.23-16.71-30.94a5.74 5.74 0 0 1 -5.2 1.8c-5.87 16-16 34.11-27.1 45.62a159.4 159.4 0 0 0 -19.65-13.77c10.17-9.94 19.2-26.65 23.94-42.46l28.23 8.13 20.33-8.81c6.1 8.13 12.87 18.52 16.71 26.65 11.75-26.88 12.88-60.3 12.88-87.18v-86.77h110.44v24.61h-85.6v35.46h61.43zm-106.38-59.67v146.35h-73.62v-146.35zm-25.07 42.23v-20.78h-24.39v20.78zm0 41.33v-21.23h-24.39v21.23zm0 41.11v-21.23h-24.39v21.23zm65.27-19.88c-.89 24.88-3.84 53.08-12.89 76.79a96.3 96.3 0 0 0 34.56-26.65c-9-14.68-15.81-31.39-21.46-50.14zm18.52-16.71a173.08 173.08 0 0 0 17.85 44.49 175.08 175.08 0 0 0 15.58-48.55h-51.72v8.13z"/><path d="m489.61 652.45c-.45 2.26-2.48 3.84-5.87 4.06-5.87 37.5-14.68 66.18-74.31 82-2.71-7-9.48-17.84-15.13-23.26 52.85-11.75 58.95-32.75 62.11-66zm-4.29-68.21v-13.77h-86.05v-24.85h86.05v-20.32l34.33 1.8c-.23 2.26-2 3.62-6.1 4.52v14h88.76v24.85h-88.76v13.77h66.63v23.76h-158.33v-23.76zm112.7 84h-27.33v-24.6h-141.38v24.62h-26.2v-48.79h194.89zm-58.27 35c0 7.22 1.35 8.13 9.48 8.13h22.77c7.68 0 9-3.84 9.94-27.11 5.42 4.29 16.94 8.36 24.39 10.17-2.93 32.75-10.16 41.33-31.61 41.33h-29.33c-26.42 0-33-7.91-33-32.3v-54l33.2 1.81c-.23 2.26-1.81 3.61-5.87 4.52z"/><path d="m739.17 564.82h81.08v113.83h-28.45v-11.52h-52.63v71.14h-28.45v-71.14h-50.59v12.65h-27.33v-115h77.92v-39.48l34.78 2c-.23 2.26-1.81 3.61-6.33 4.29zm-79 75.66h50.59v-49h-50.63zm79 0h52.63v-49h-52.63z"/></g></svg>