<svg enable-background="new 0 0 1000 1000" viewBox="0 0 1000 1000" xmlns="http://www.w3.org/2000/svg"><circle cx="500" cy="500" fill="#dc408e" r="500"/><g fill="#fff"><g enable-background="new"><path d="m287.5 286.9c0-9.6-.4-14.6-1.2-19.8h25c-.8 5.8-1.2 10.6-1.2 19.8v43.8h42.8v-32.6c0-6.6-.2-11-.8-15.8h24c-.8 6-1 10-1 17.4v39.8c0 5.2.2 9.6.6 12.8-4.4-.4-9.2-.6-14-.6h-51.6v65.6h49.4v-33.2c0-6.8-.2-12-1-17h24.2c-.6 5.2-1 11-1 19v43.2c0 9.4.4 14.6 1.2 20h-23.4v-10.4h-119v10.4h-23.4c.8-6 1.2-12 1.2-20v-42.4c0-7.8-.4-14-1-19.2h24.2c-.8 4.8-1 9.2-1 17.2v32.4h47v-65.6h-48c-5.4 0-9.6.2-14.4.6.4-4.4.6-8.2.6-12.8v-39.6c0-7.2-.2-12.6-1-17.6h24c-.6 4.4-.8 9.2-.8 16v32.4h39.6z"/><path d="m414.9 316.3c13.6 8 21.2 13.4 34 24.4l-12 18.6c-11.8-11.4-18.2-16.2-34.4-26zm35.2 68.4c-5 17.2-8 25-15 40.6-4.8 10.6-5.8 12.4-9 18.4-.4.6-.6.8-2.8 5.2l-19.2-16.6c10.8-12.4 19.6-31.2 28.2-60.2zm-6.2-74.4c-11.2-12.8-17.4-18-32.4-27.8l14-16c13 8.6 20 14.2 31.2 25.4-.2-7.2-.2-9.6-.6-12.4 4.6.6 10.8.8 19.8.8h32.8v-1.6c0-6-.4-9.4-1-13.4h23.4c-.8 4.2-1 7.4-1 13.4v1.6h34.8c10.4 0 16.6-.2 21.4-.8-.4 4.4-.6 7.6-.6 14v11.4c0 5.8.2 10.2.8 14.2h-17.2v8.4c-5.4-.6-10.6-.8-18.6-.8h-21.4v10.8h32.8c8.6 0 12.2-.2 17.2-.8-.6 5.4-.8 10.4-.8 18v40.2c0 7.4.2 12.8.8 18.4-4.6-.6-11.6-.8-18-.8h-20c7.6 5.4 10.4 7 16.6 9.8 11 5 19.6 7.4 34.2 9.2-5.6 7.2-7.4 10.2-10.8 19-11.8-2.6-17-4.4-27.4-9-11-5-16.4-8-26.4-15.4l13.2-13.6h-44.2l13.8 13.6c-18.6 13.8-28.4 18.2-52.8 24.4-3.8-8.2-6.2-12-12.2-18.2 22.4-3.6 33.4-7.8 50.6-19.8h-16.2c-8.2 0-11.6.2-17.2.6.4-4.8.6-9.8.6-17.8v-41.2c-.2-7.6-.2-13.2-.6-17.2 3.4.4 10.2.6 16.8.6h30.2v-10.8h-19c-8 0-12.4.2-18.2.8v-8.2h-16.2c.4-4 .6-8.2.6-13v-13zm121-12h-88v11c4.6.2 8 .4 13.6.4h60.2c6.2 0 9.4-.2 14.2-.4zm-82 55.2v13.4h26.6v-13.4zm0 29.2v13.4h26.6v-13.4zm46.4-15.8h29.2v-13.4h-29.2zm0 29.2h29.2v-13.4h-29.2z"/><path d="m632.1 342.5c-10 0-17 .4-24 1.2v-22c5.4.8 13 1.2 24.4 1.2h45.6v-17.4h-30c-10.6 0-17 .2-22.8.8v-21c5.2.8 13 1.2 23.6 1.2h29.2v-3.4c0-7.8-.4-12.2-1.2-17.6h24.4c-1 5.2-1.2 9.4-1.2 17.6v3.4h14.4c10.2 0 16.6-.4 22.4-1.2v17.2c10.6-11 19-22.2 23.2-30.4l19.8 13c-1.4 1.4-4.4 4.8-9 10.2-8 9.4-16.6 18-27.2 27.6h20.6c10.4 0 16.4-.4 22.8-1.2v22c-6.6-.8-14.6-1.2-24.8-1.2h-43c-7.6 5.4-12.6 8.8-21.6 14.6 4.4-.2 11-.2 16.2-.2h29.4c9.6 0 15.2-.2 21-.6-.6 5.8-.8 10.6-.8 21.8v49.4c0 10.4.4 17.2 1.2 22.6h-23.2v-8.6h-72.6v8.6h-23.4c.8-6.6 1.2-13.8 1.2-22.6v-31c0-3.2 0-7.6.2-11.2-12.2 6-16.4 7.8-31.8 14-3.4-8.2-6-12.6-11.8-20 30.4-9 56-20.6 82.4-36.8zm36.8 47.4h72.4v-14.8h-72.4zm0 32.8h72.4v-15.4h-72.4zm45.2-99.8c7.4-5.8 12.8-10.4 19.2-16.8-5.4-.4-8.8-.6-16.8-.6h-16.4v17.4z"/></g><g enable-background="new"><path d="m248.2 689.3c-8.6 4.8-15.4 8-28 13-3.8-7.6-6.4-11.8-11.6-17.4 16.6-4.2 32.6-11.4 44.8-19.8h-21c-9.6 0-15.8.4-22 1v-19c6.4.6 12.8 1 22.6 1h39.4c2.2-2.2 3.8-4.4 5-6.4h-27c-6.6 0-11.2.2-15.8.4.4-4.6.6-8.6.6-13.8v-28.6c0-5.2-.2-9.4-.6-14 3.4.4 7.6.6 15.8.6h8.8v-7.6h-26c-9.2 0-14.6.4-22 1.4v-19.4c6.6.8 13.8 1.2 22.4 1.2h25.6v-1c0-4.8-.2-7.2-.8-10.8h22.4c-.6 3.4-.8 5.8-.8 10.8v1h41.2v-1c0-4.8-.2-7.2-.6-10.8h22.2c-.6 3.4-.8 6-.8 10.8v1h27c8.8 0 15.8-.4 22.6-1.2v19.4c-7.4-1-12.8-1.4-22-1.4h-27.6v7.6h11c8.2 0 12.4-.2 15.8-.6-.4 4.4-.6 8.4-.6 14v28.6c0 5.6.2 9.6.6 13.8-4.6-.2-9.4-.4-16-.4h-53.2c-2.2 3.6-2.8 4.6-4.2 6.4h74.8c9.8 0 16-.4 22.6-1v19c-6.4-.8-12.2-1-22-1h-21.6c5.4 4 12.8 8 21.4 11.4 7.6 3.2 14 4.8 26.2 7.2-4.4 6-7.4 12-10.2 19-11.4-4-20.2-7.6-27.6-11.8-3.8 38.8-7.2 43-35.4 43-3.8 0-7.6-.2-15.4-.6-1-7.4-2.8-13-6.4-19.4 8.8 1.4 14.2 2 20 2 13.2 0 14.4-1.2 16.2-19.6h-35.8c-11.8 22-33.2 34.4-68.4 39.8-3-6.8-5.6-11-10.8-17.6 27-2.6 44.8-9.6 55.8-22.2h-13.2c-8 0-12.8.2-17.4 1zm7-82.8h92.8v-6.4h-92.8zm0 20.4h92.8v-7h-92.8zm25.8 38.2c-6.8 6.6-12.6 11.2-18.6 15.4h2 23.2c1.4-4.4 1.8-6.6 1.8-11.4l22.4.8c-.2.8-1.4 4.4-3 10.6h33c-8.6-6-10.6-7.8-18.6-15.4zm40.2-86.4h-41.2v7.6h41.2z"/><path d="m517.2 643.1h47c9.2 0 14.2-.2 19.4-.8v17.4c-5.4-.8-10-1-19.2-1h-52.8v10.6h56.8c12.2 0 17.4-.2 22.8-1v20.2c-6.6-1-12.6-1.2-22.8-1.2h-39.8c15.4 11.2 40.8 20.8 66.2 25.2-4 5.4-5.6 8-7.4 11.8-.2.4-1 2.2-2.2 5-.4.8-1 2.2-1.8 3.8-15.8-4.2-27.6-8.4-40-14.6-14-7-22.6-13-32.4-22.4.4 5.8.6 11 .6 13.2v11.6c0 7.4.2 10.4 1.2 14.4h-23.8c1-4.4 1.2-7.6 1.2-14.2v-11.8c0-4.6.2-8.4.6-13.2-10.2 10.2-20.2 17-36.2 24.4-11 5.2-21.4 8.8-35.6 12.4-3.2-7.6-6.6-13.8-11.2-20 17-2.8 29.2-6.4 43.2-12.8 9.6-4.4 15.6-7.8 21.6-12.8h-38.6c-10.2 0-16 .2-22.6 1.2v-20.2c5.4.8 10.4 1 22.6 1h56.2v-10.6h-39.6c-7.8 0-12.2.2-17 .6.6-4.4.8-9.6.8-16v-24.8c0-6.4.2-11.8.6-17.4-5.8 6.8-10.2 11-18.4 17.4-3.4-8.6-5.8-13.2-10.4-19.6 15.6-11 26.4-22.4 36.6-38.6 2.8-4.4 5-9 6.4-13l23.2 3.8c-7.6 12.2-7.6 12.2-11 16.8h35.8c5-7.4 7.8-12.8 10.4-20.2l22.6 2.8c-5 9-7 12.4-10.4 17.4h43c9 0 14.2-.2 19.6-1v18.6c-5-.6-9-.8-16.6-.8h-48.6v9.6h38.4c9.8 0 13-.2 19-1v16.4c-6-.8-8.2-.8-19-.8h-38.4v9.6h38.4c10 0 12.8-.2 19-1v16.4c-5.4-.6-8.4-.8-19-.8h-38.4zm-20.8-58.4h-41.2v9.6h41.2zm0 24.2h-41.2v9.6h41.2zm-41.2 24.2v10h41.2v-10z"/><path d="m687.4 572.1c0-10.4-.2-15.2-1.2-21.8h25.2c-.8 6.2-1.2 11.4-1.2 21v13h54.8c8.8 0 13-.2 18.2-.8-.6 5.6-.8 9.8-.8 17.6v61c0 9 .2 14.2 1 20h-23.6v-12h-49.6v40.6c0 12 .4 17.8 1.4 24.8h-25.6c1-7.4 1.4-13.6 1.4-24.8v-40.6h-47.2v12h-23.6c.8-6.6 1-11.6 1-20v-61.2c0-7.4-.2-11-.8-17.4 5.8.6 10 .8 18 .8h52.6zm-47.2 33.4v43.4h47.2v-43.4zm119.6 43.4v-43.4h-49.6v43.4z"/></g></g></svg>