<?xml version="1.0" encoding="utf-8"?>
<!-- Generator: Adobe Illustrator 24.0.1, SVG Export Plug-In . SVG Version: 6.00 Build 0)  -->
<svg version="1.1" id="レイヤー_1" xmlns="http://www.w3.org/2000/svg" xmlns:xlink="http://www.w3.org/1999/xlink" x="0px"
	 y="0px" viewBox="0 0 593 56.7" style="enable-background:new 0 0 593 56.7;" xml:space="preserve">
<style type="text/css">
	.st0{fill:#FFFFFF;}
</style>
<title>アセット 3</title>
<g>
	<path class="st0" d="M32.7,36.1c-3.3,0-4.4,0.1-6.3,0.3V25c2.4,0.3,3.9,0.4,8.4,0.4h5.1c3.3,0,5.6-0.1,8.5-0.3
		c-0.3,2.4-0.4,4.5-0.4,8.7V41c0,4.5,0.1,6.6,0.4,9.5c-3.5,2.2-5.3,3.1-8.1,4c-4.2,1.4-8.8,2.2-13.6,2.2c-8.1,0-14.5-2.2-19-6.9
		C2.7,45,0,37.4,0,28.6C0,11.8,10.2,1.1,26.3,1.1c8,0,14.1,2.5,18.3,7.6c1.7,2,2.8,3.9,3.8,7l-13.1,3c-0.7-2.3-1.5-3.5-2.9-4.6
		c-1.7-1.3-3.8-2-6.5-2c-8.2,0-12.7,6-12.7,16.7c0,6,1.3,10.6,3.9,13.4c2,2.2,5.2,3.5,9.2,3.5c3.4,0,6.1-0.7,9.3-2.3v-7.3H32.7z"/>
	<path class="st0" d="M87.8,55.5c-0.4-2-1.2-4.7-3.1-10c-2-5.6-2.8-7-4.4-8.5c-1.3-1.2-2.9-1.7-5-1.7h-6.5v10.5
		c0,4.4,0.1,6.7,0.5,9.7H55.5c0.4-2.9,0.5-4.9,0.5-9.6V11.5c0-4-0.1-6.3-0.5-9.4c2.8,0.1,5.2,0.2,9.5,0.2h16.7
		c10.4,0,16.4,5.4,16.4,14.6c0,4.5-1.3,8.1-3.8,10.5c-1.6,1.5-2.9,2.2-6.1,3.2c3.3,1,4.7,2.5,6.8,7c1,2,1.9,4.2,4.7,11.1
		c0.7,1.8,1.5,3.4,3.1,6.8H87.8z M78.7,24.4c3.8,0,6.1-2.3,6.1-6c0-3.6-2-5.4-6-5.4H68.7v11.4H78.7z"/>
	<path class="st0" d="M144.4,55.5c-0.5-3.1-0.9-4.7-1.5-6.9l-1.7-5.4h-18.3l-1.7,5.4c-0.8,2.6-1.3,4.5-1.6,6.9h-15
		c1-1.9,1.5-3.5,3.1-7.8l13.8-38.6c1.2-3.1,1.7-5.1,2-6.9h16.7c0.4,1.9,0.9,3.5,2.2,6.9l13.9,38.6c1.2,3.4,2.2,6,3.1,7.8H144.4z
		 M131.9,13.2l-6,19.2h12L131.9,13.2z"/>
	<path class="st0" d="M164.4,11.5c0-4.4-0.1-6.5-0.6-9.4c2.6,0.1,4.2,0.2,9.5,0.2h13.4c7.9,0,14.2,2.2,18.5,6.3
		c4.7,4.6,7,11.3,7,19.9c0,8.8-2.6,15.8-7.4,20.7c-4.3,4.2-10.4,6.4-18,6.4h-13.5c-4.9,0-6.7,0.1-9.4,0.2c0.4-2.8,0.5-4.9,0.5-9.4
		V11.5z M185.7,44.3c4.2,0,7.1-1.1,9.4-3.4c2.6-2.7,4-7,4-12.3c0-5.4-1.2-9.4-3.7-11.9c-2.2-2.2-5.3-3.3-9.9-3.3h-8.4v30.9H185.7z"
		/>
	<path class="st0" d="M253.2,44.4c0,6,0.1,8.3,0.5,11.1H240c0.4-2.8,0.6-5.4,0.6-11V11.4c0-4.2-0.1-6.3-0.5-9.4
		c2.6,0.1,4.4,0.2,9.4,0.2h18.5c5.6,0,7.7-0.1,10.8-0.4V14c-2.8-0.3-5.3-0.4-10.7-0.4h-14.7V24h12c5,0,7.4-0.1,10.2-0.4v11.8
		c-2.8-0.3-5.4-0.4-10.2-0.4h-12V44.4z"/>
	<path class="st0" d="M324.2,56c-2.8-0.3-5.1-0.4-10.6-0.4h-20.2c-4.9,0-6.7,0.1-9.4,0.2c0.4-2.6,0.5-4.9,0.5-9.4v-35
		c0-4-0.1-6.2-0.5-9.4c2.6,0.1,4.4,0.2,9.4,0.2h20.4c4.4,0,6.5-0.1,9.5-0.4v12c-2.9-0.3-5.3-0.4-9.5-0.4h-16.7v9.4h13.8
		c4.2,0,5.8-0.1,9.6-0.4v11.8c-3-0.3-5.2-0.4-9.6-0.4h-13.8v10.8h16.5c4.9,0,7.7-0.1,10.4-0.4V56z"/>
	<path class="st0" d="M342.5,38.2c0.3,2.3,0.7,3.5,1.7,4.7c1.5,1.9,4.2,3,7.5,3c4.9,0,7.9-2.2,7.9-5.8c0-2-1-3.7-2.7-4.5
		c-1.3-0.6-2.9-1.1-9.6-2.6c-5.9-1.3-7.9-2-10.3-3.7c-4-2.8-6.2-7.1-6.2-12.3c0-9.9,7.9-16.1,20.6-16.1c8.1,0,14.3,2.5,17.8,7.3
		c1.6,2.1,2.4,4,3.2,7.7l-13.6,1.5c-0.8-4.2-3.1-5.9-7.9-5.9c-3.9,0-6.8,2.1-6.8,5.1c0,1.8,1,3.1,3,4.1c1.3,0.6,1.3,0.6,8.8,2.1
		c4.9,1,7.9,2.1,10.4,3.7c4.6,2.9,6.9,7.2,6.9,13.1c0,4.8-1.5,8.9-4.5,11.8c-3.7,3.6-9.3,5.4-16.8,5.4c-5.4,0-10.8-1.2-14.3-3.1
		c-3.2-1.8-5.6-4.5-6.9-8.2c-0.6-1.5-1-3-1.4-6L342.5,38.2z"/>
	<path class="st0" d="M409.6,55.5c-5.8,0-7.2,0.1-9.6,0.3c0.3-3.1,0.6-5.1,1.3-7.6c1.7-5.3,4.7-10.2,9.2-14.3
		c2.4-2.2,4.9-4.1,11.4-8.5c5.5-3.7,6.9-5.4,6.9-8.3c0-3.1-2.8-5.1-6.9-5.1c-3.1,0-5.3,1-6.7,3.2c-0.9,1.4-1.3,2.7-1.6,5.4
		l-13.4-1.4c1-5.6,2.1-8.4,4.7-11.4c3.7-4.3,9.5-6.6,17-6.6c8.6,0,15.2,2.9,18.4,8.1c1.4,2.2,2.1,4.7,2.1,7.5
		c0,4.7-1.9,8.6-5.9,11.9c-2.1,1.9-2.8,2.3-9.3,6.9c-5.6,3.8-7.9,6.1-9.4,8.9h14.9c4.8,0,7.7-0.1,10.2-0.4V56
		c-3.7-0.3-6.4-0.4-11-0.4H409.6z"/>
	<path class="st0" d="M455.8,50.7c-2.1-2.1-3.7-4.5-4.7-7.1c-1.7-4.5-2.5-9.5-2.5-14.7c0-6.7,1.6-13.7,4-17.7
		c3.9-6.5,10.6-10.1,18.6-10.1c6.2,0,11.7,2.1,15.6,6c2.1,2.1,3.7,4.5,4.7,7.1c1.7,4.5,2.5,9.5,2.5,14.7c0,6.7-1.6,13.8-4,17.8
		c-3.8,6.4-10.6,10-18.7,10C465,56.7,459.7,54.6,455.8,50.7z M461.7,28.4c0,11.5,3.3,17.4,9.6,17.4c6.3,0,9.5-5.8,9.5-17.2
		c0-11-3.3-16.7-9.5-16.7C465.2,11.9,461.7,18,461.7,28.4z"/>
	<path class="st0" d="M508.7,55.5c-5.8,0-7.2,0.1-9.6,0.3c0.3-3.1,0.6-5.1,1.3-7.6c1.7-5.3,4.7-10.2,9.2-14.3
		c2.4-2.2,4.9-4.1,11.4-8.5c5.5-3.7,6.9-5.4,6.9-8.3c0-3.1-2.8-5.1-6.9-5.1c-3.1,0-5.3,1-6.7,3.2c-0.9,1.4-1.3,2.7-1.6,5.4
		l-13.4-1.4c1-5.6,2.1-8.4,4.7-11.4c3.7-4.3,9.5-6.6,17-6.6c8.6,0,15.2,2.9,18.4,8.1c1.4,2.2,2.1,4.7,2.1,7.5
		c0,4.7-1.9,8.6-5.9,11.9c-2.1,1.9-2.8,2.3-9.3,6.9c-5.6,3.8-7.9,6.1-9.4,8.9h14.9c4.8,0,7.7-0.1,10.2-0.4V56
		c-3.7-0.3-6.4-0.4-11-0.4H508.7z"/>
	<path class="st0" d="M554.8,50.7c-2.1-2.1-3.7-4.5-4.7-7.1c-1.7-4.5-2.5-9.5-2.5-14.7c0-6.7,1.6-13.7,4-17.7
		c3.9-6.5,10.6-10.1,18.6-10.1c6.2,0,11.7,2.1,15.6,6c2.1,2.1,3.7,4.5,4.7,7.1c1.7,4.5,2.5,9.5,2.5,14.7c0,6.7-1.6,13.8-4,17.8
		c-3.8,6.4-10.6,10-18.7,10C564,56.7,558.7,54.6,554.8,50.7z M560.7,28.4c0,11.5,3.3,17.4,9.6,17.4c6.3,0,9.5-5.8,9.5-17.2
		c0-11-3.3-16.7-9.5-16.7C564.3,11.9,560.7,18,560.7,28.4z"/>
</g>
</svg>
