<?xml version="1.0" encoding="utf-8"?>
<!-- Generator: Adobe Illustrator 24.0.1, SVG Export Plug-In . SVG Version: 6.00 Build 0)  -->
<svg version="1.1" id="レイヤー_1" xmlns="http://www.w3.org/2000/svg" xmlns:xlink="http://www.w3.org/1999/xlink" x="0px"
	 y="0px" viewBox="0 0 610.7 59.7" style="enable-background:new 0 0 610.7 59.7;" xml:space="preserve">
<style type="text/css">
	.st0{fill:none;stroke:#FAD961;stroke-width:2;stroke-miterlimit:10;}
</style>
<title>アセット 1</title>
<g id="レイヤー_2_1_">
	<g id="レイヤー_1-2">
		<g>
			<path class="st0" d="M35.1,37.2c-3.3,0-4.5,0.1-6.5,0.3V26c2.4,0.3,4,0.4,8.6,0.4h5.2c3.3,0,5.8-0.1,8.6-0.3
				c-0.3,2.5-0.5,4.7-0.5,8.9v7.3c0,4.7,0.1,6.7,0.5,9.8c-3.6,2.3-5.4,3.1-8.3,4.1c-4.3,1.4-9,2.2-13.9,2.2c-8.3,0-14.8-2.3-19.5-7
				c-5-5-7.7-12.8-7.7-21.8c0-17.2,10.4-28.2,26.9-28.2C36.8,1.4,43,4,47.3,9.2c1.8,2,2.8,4,3.9,7.1l-13.4,3.1
				c-0.7-2.4-1.5-3.6-2.9-4.7c-1.7-1.4-3.9-2-6.6-2c-8.4,0-13,6.1-13,17.1c0,6.1,1.4,10.8,4,13.7c2.1,2.3,5.3,3.5,9.4,3.5
				c3.5,0,6.3-0.7,9.5-2.4v-7.5H35.1z"/>
			<path class="st0" d="M91.5,57.1c-0.4-2.1-1.2-4.8-3.2-10.2c-2.1-5.7-2.9-7.2-4.5-8.6c-1.4-1.2-3-1.8-5.1-1.8h-6.7v10.7
				c0,4.5,0.1,6.9,0.5,9.9H58.4c0.4-3,0.5-5,0.5-9.8V12.1c0-4.1-0.1-6.5-0.5-9.6c2.9,0.1,5.3,0.2,9.8,0.2h17
				c10.6,0,16.8,5.5,16.8,14.9c0,4.7-1.3,8.3-3.9,10.7c-1.6,1.5-3,2.2-6.2,3.3c3.3,1,4.8,2.6,6.9,7.2c1,2.1,1.9,4.3,4.8,11.4
				c0.7,1.8,1.5,3.5,3.1,6.9H91.5z M82.2,25.3c3.9,0,6.2-2.4,6.2-6.1c0-3.7-2.1-5.6-6.2-5.6H71.9v11.7H82.2z"/>
			<path class="st0" d="M149.4,57.1c-0.5-3.1-0.9-4.8-1.6-7.1l-1.8-5.6h-18.7l-1.8,5.6c-0.9,2.6-1.3,4.7-1.6,7.1h-15.3
				c1-2,1.6-3.5,3.1-8l14.2-39.4c1.2-3.2,1.8-5.2,2.1-7.1h17.1c0.5,1.9,0.9,3.6,2.2,7.1l14.2,39.4c1.2,3.5,2.3,6.2,3.1,8H149.4z
				 M136.6,13.8l-6.1,19.7h12.3L136.6,13.8z"/>
			<path class="st0" d="M169.8,12.1c0-4.5-0.1-6.6-0.6-9.6c2.6,0.1,4.3,0.2,9.7,0.2h13.7c8.1,0,14.5,2.2,18.9,6.5
				c4.8,4.7,7.2,11.6,7.2,20.3c0,9-2.6,16.2-7.6,21.2c-4.4,4.3-10.6,6.6-18.4,6.6h-13.8c-5,0-6.9,0.1-9.6,0.2c0.4-2.9,0.5-5,0.5-9.6
				V12.1z M191.6,45.7c4.3,0,7.3-1.1,9.6-3.5c2.7-2.8,4.1-7.1,4.1-12.6c0-5.6-1.2-9.6-3.8-12.2c-2.3-2.3-5.4-3.3-10.2-3.3h-8.6v31.6
				H191.6z"/>
			<path class="st0" d="M260.7,45.7c0,6.2,0.1,8.5,0.5,11.4h-14.1c0.5-2.9,0.6-5.5,0.6-11.2V12c0-4.3-0.1-6.5-0.5-9.6
				c2.7,0.1,4.5,0.2,9.6,0.2h18.9c5.8,0,7.9-0.1,11-0.5v12.4c-2.9-0.3-5.4-0.5-10.9-0.5h-15.1v10.7H273c5.1,0,7.6-0.1,10.5-0.5v12.1
				c-2.9-0.3-5.5-0.5-10.5-0.5h-12.3V45.7z"/>
			<path class="st0" d="M333.3,57.6c-2.8-0.3-5.2-0.5-10.8-0.5h-20.6c-5,0-6.8,0.1-9.6,0.2c0.4-2.6,0.5-5,0.5-9.6V12
				c0-4.1-0.1-6.4-0.5-9.6c2.7,0.1,4.5,0.2,9.6,0.2h20.9c4.5,0,6.7-0.1,9.8-0.5v12.3c-3-0.3-5.4-0.5-9.8-0.5h-17v9.6h14.2
				c4.3,0,5.9-0.1,9.8-0.5v12.1c-3.1-0.3-5.3-0.5-9.8-0.5h-14.2v11h16.9c5,0,7.9-0.1,10.7-0.5V57.6z"/>
			<path class="st0" d="M352,39.4c0.3,2.4,0.7,3.5,1.7,4.8c1.6,2,4.3,3.1,7.7,3.1c5,0,8.1-2.2,8.1-5.9c0-2-1-3.8-2.8-4.6
				c-1.4-0.7-3-1.1-9.8-2.7c-6-1.3-8.1-2.1-10.5-3.8c-4.1-2.9-6.4-7.3-6.4-12.6c0-10.1,8.1-16.4,21-16.4c8.3,0,14.7,2.6,18.2,7.5
				c1.6,2.2,2.4,4.1,3.3,7.9l-13.9,1.5c-0.8-4.3-3.1-6-8.1-6c-4,0-6.9,2.2-6.9,5.2c0,1.8,1,3.2,3.1,4.2c1.3,0.6,1.3,0.6,9,2.2
				c5,1,8.1,2.2,10.6,3.7c4.7,2.9,7.1,7.3,7.1,13.4c0,4.9-1.6,9.1-4.6,12.1c-3.8,3.7-9.6,5.6-17.2,5.6c-5.6,0-11.1-1.2-14.6-3.2
				c-3.3-1.8-5.7-4.7-7.1-8.4c-0.7-1.6-1-3.1-1.4-6.1L352,39.4z"/>
			<path class="st0" d="M420.7,57.1c-5.9,0-7.4,0.1-9.8,0.3c0.3-3.2,0.6-5.2,1.4-7.7c1.7-5.4,4.8-10.4,9.4-14.7
				c2.5-2.3,5-4.2,11.7-8.7c5.6-3.8,7-5.5,7-8.5c0-3.1-2.8-5.2-7-5.2c-3.1,0-5.4,1-6.8,3.3c-0.9,1.4-1.3,2.8-1.6,5.5l-13.8-1.4
				c1-5.7,2.2-8.6,4.8-11.7c3.7-4.4,9.7-6.7,17.4-6.7c8.8,0,15.6,2.9,18.9,8.3c1.4,2.3,2.2,4.8,2.2,7.7c0,4.8-2,8.8-6,12.2
				c-2.2,1.9-2.8,2.4-9.5,7c-5.7,3.9-8.1,6.2-9.6,9.1h15.3c4.9,0,7.9-0.1,10.5-0.5v12.4c-3.8-0.3-6.6-0.5-11.2-0.5H420.7z"/>
			<path class="st0" d="M467.9,52.2c-2.2-2.2-3.8-4.7-4.8-7.3c-1.7-4.7-2.6-9.7-2.6-15c0-6.9,1.6-14,4.1-18.1
				c4-6.7,10.8-10.4,19.1-10.4c6.4,0,11.9,2.2,15.9,6.1c2.2,2.2,3.8,4.7,4.8,7.3c1.7,4.7,2.6,9.7,2.6,15.1c0,6.9-1.6,14.1-4.1,18.2
				c-3.9,6.6-10.8,10.2-19.1,10.2C477.3,58.3,471.8,56.2,467.9,52.2z M473.9,29.4c0,11.7,3.3,17.8,9.8,17.8c6.4,0,9.7-5.9,9.7-17.6
				c0-11.2-3.4-17.1-9.8-17.1C477.5,12.5,473.9,18.7,473.9,29.4z"/>
			<path class="st0" d="M522,57.1c-5.9,0-7.4,0.1-9.8,0.3c0.3-3.2,0.6-5.2,1.4-7.7c1.7-5.4,4.8-10.4,9.4-14.7
				c2.5-2.3,5-4.2,11.7-8.7c5.6-3.8,7-5.5,7-8.5c0-3.1-2.8-5.2-7-5.2c-3.1,0-5.4,1-6.8,3.3c-0.9,1.4-1.3,2.8-1.6,5.5l-13.8-1.4
				c1-5.7,2.2-8.6,4.8-11.7c3.7-4.4,9.7-6.7,17.4-6.7c8.8,0,15.6,2.9,18.9,8.3c1.4,2.3,2.2,4.8,2.2,7.7c0,4.8-2,8.8-6,12.2
				c-2.2,1.9-2.8,2.4-9.5,7c-5.7,3.9-8.1,6.2-9.6,9.1h15.3c4.9,0,7.9-0.1,10.5-0.5v12.4c-3.8-0.3-6.6-0.5-11.2-0.5H522z"/>
			<path class="st0" d="M569.1,52.2c-2.2-2.2-3.8-4.7-4.8-7.3c-1.7-4.7-2.6-9.7-2.6-15c0-6.9,1.6-14,4.1-18.1
				c4-6.7,10.8-10.4,19.1-10.4c6.4,0,11.9,2.2,15.9,6.1c2.2,2.2,3.8,4.7,4.8,7.3c1.7,4.7,2.6,9.7,2.6,15.1c0,6.9-1.6,14.1-4.1,18.2
				c-3.9,6.6-10.8,10.2-19.1,10.2C578.6,58.3,573.1,56.2,569.1,52.2z M575.2,29.4c0,11.7,3.3,17.8,9.8,17.8c6.4,0,9.7-5.9,9.7-17.6
				c0-11.2-3.4-17.1-9.8-17.1C578.8,12.5,575.2,18.7,575.2,29.4z"/>
		</g>
	</g>
</g>
</svg>
