<svg enable-background="new 0 0 593 56.7" viewBox="0 0 593 56.7" xmlns="http://www.w3.org/2000/svg"><g fill="#fff"><path d="m32.7 36.1c-3.3 0-4.4.1-6.3.3v-11.4c2.4.3 3.9.4 8.4.4h5.1c3.3 0 5.6-.1 8.5-.3-.3 2.4-.4 4.5-.4 8.7v7.2c0 4.5.1 6.6.4 9.5-3.5 2.2-5.3 3.1-8.1 4-4.2 1.4-8.8 2.2-13.6 2.2-8.1 0-14.5-2.2-19-6.9-5-4.8-7.7-12.4-7.7-21.2 0-16.8 10.2-27.5 26.3-27.5 8 0 14.1 2.5 18.3 7.6 1.7 2 2.8 3.9 3.8 7l-13.1 3c-.7-2.3-1.5-3.5-2.9-4.6-1.7-1.3-3.8-2-6.5-2-8.2 0-12.7 6-12.7 16.7 0 6 1.3 10.6 3.9 13.4 2 2.2 5.2 3.5 9.2 3.5 3.4 0 6.1-.7 9.3-2.3v-7.3z"/><path d="m87.8 55.5c-.4-2-1.2-4.7-3.1-10-2-5.6-2.8-7-4.4-8.5-1.3-1.2-2.9-1.7-5-1.7h-6.5v10.5c0 4.4.1 6.7.5 9.7h-13.8c.4-2.9.5-4.9.5-9.6v-34.4c0-4-.1-6.3-.5-9.4 2.8.1 5.2.2 9.5.2h16.7c10.4 0 16.4 5.4 16.4 14.6 0 4.5-1.3 8.1-3.8 10.5-1.6 1.5-2.9 2.2-6.1 3.2 3.3 1 4.7 2.5 6.8 7 1 2 1.9 4.2 4.7 11.1.7 1.8 1.5 3.4 3.1 6.8zm-9.1-31.1c3.8 0 6.1-2.3 6.1-6 0-3.6-2-5.4-6-5.4h-10.1v11.4z"/><path d="m144.4 55.5c-.5-3.1-.9-4.7-1.5-6.9l-1.7-5.4h-18.3l-1.7 5.4c-.8 2.6-1.3 4.5-1.6 6.9h-15c1-1.9 1.5-3.5 3.1-7.8l13.8-38.6c1.2-3.1 1.7-5.1 2-6.9h16.7c.4 1.9.9 3.5 2.2 6.9l13.9 38.6c1.2 3.4 2.2 6 3.1 7.8zm-12.5-42.3-6 19.2h12z"/><path d="m164.4 11.5c0-4.4-.1-6.5-.6-9.4 2.6.1 4.2.2 9.5.2h13.4c7.9 0 14.2 2.2 18.5 6.3 4.7 4.6 7 11.3 7 19.9 0 8.8-2.6 15.8-7.4 20.7-4.3 4.2-10.4 6.4-18 6.4h-13.5c-4.9 0-6.7.1-9.4.2.4-2.8.5-4.9.5-9.4zm21.3 32.8c4.2 0 7.1-1.1 9.4-3.4 2.6-2.7 4-7 4-12.3 0-5.4-1.2-9.4-3.7-11.9-2.2-2.2-5.3-3.3-9.9-3.3h-8.4v30.9z"/><path d="m253.2 44.4c0 6 .1 8.3.5 11.1h-13.7c.4-2.8.6-5.4.6-11v-33.1c0-4.2-.1-6.3-.5-9.4 2.6.1 4.4.2 9.4.2h18.5c5.6 0 7.7-.1 10.8-.4v12.2c-2.8-.3-5.3-.4-10.7-.4h-14.7v10.4h12c5 0 7.4-.1 10.2-.4v11.8c-2.8-.3-5.4-.4-10.2-.4h-12v9.4z"/><path d="m324.2 56c-2.8-.3-5.1-.4-10.6-.4h-20.2c-4.9 0-6.7.1-9.4.2.4-2.6.5-4.9.5-9.4v-35c0-4-.1-6.2-.5-9.4 2.6.1 4.4.2 9.4.2h20.4c4.4 0 6.5-.1 9.5-.4v12c-2.9-.3-5.3-.4-9.5-.4h-16.7v9.4h13.8c4.2 0 5.8-.1 9.6-.4v11.8c-3-.3-5.2-.4-9.6-.4h-13.8v10.8h16.5c4.9 0 7.7-.1 10.4-.4v11.8z"/><path d="m342.5 38.2c.3 2.3.7 3.5 1.7 4.7 1.5 1.9 4.2 3 7.5 3 4.9 0 7.9-2.2 7.9-5.8 0-2-1-3.7-2.7-4.5-1.3-.6-2.9-1.1-9.6-2.6-5.9-1.3-7.9-2-10.3-3.7-4-2.8-6.2-7.1-6.2-12.3 0-9.9 7.9-16.1 20.6-16.1 8.1 0 14.3 2.5 17.8 7.3 1.6 2.1 2.4 4 3.2 7.7l-13.6 1.5c-.8-4.2-3.1-5.9-7.9-5.9-3.9 0-6.8 2.1-6.8 5.1 0 1.8 1 3.1 3 4.1 1.3.6 1.3.6 8.8 2.1 4.9 1 7.9 2.1 10.4 3.7 4.6 2.9 6.9 7.2 6.9 13.1 0 4.8-1.5 8.9-4.5 11.8-3.7 3.6-9.3 5.4-16.8 5.4-5.4 0-10.8-1.2-14.3-3.1-3.2-1.8-5.6-4.5-6.9-8.2-.6-1.5-1-3-1.4-6z"/><path d="m409.6 55.5c-5.8 0-7.2.1-9.6.3.3-3.1.6-5.1 1.3-7.6 1.7-5.3 4.7-10.2 9.2-14.3 2.4-2.2 4.9-4.1 11.4-8.5 5.5-3.7 6.9-5.4 6.9-8.3 0-3.1-2.8-5.1-6.9-5.1-3.1 0-5.3 1-6.7 3.2-.9 1.4-1.3 2.7-1.6 5.4l-13.4-1.4c1-5.6 2.1-8.4 4.7-11.4 3.7-4.3 9.5-6.6 17-6.6 8.6 0 15.2 2.9 18.4 8.1 1.4 2.2 2.1 4.7 2.1 7.5 0 4.7-1.9 8.6-5.9 11.9-2.1 1.9-2.8 2.3-9.3 6.9-5.6 3.8-7.9 6.1-9.4 8.9h14.9c4.8 0 7.7-.1 10.2-.4v11.9c-3.7-.3-6.4-.4-11-.4h-22.3z"/><path d="m455.8 50.7c-2.1-2.1-3.7-4.5-4.7-7.1-1.7-4.5-2.5-9.5-2.5-14.7 0-6.7 1.6-13.7 4-17.7 3.9-6.5 10.6-10.1 18.6-10.1 6.2 0 11.7 2.1 15.6 6 2.1 2.1 3.7 4.5 4.7 7.1 1.7 4.5 2.5 9.5 2.5 14.7 0 6.7-1.6 13.8-4 17.8-3.8 6.4-10.6 10-18.7 10-6.3 0-11.6-2.1-15.5-6zm5.9-22.3c0 11.5 3.3 17.4 9.6 17.4s9.5-5.8 9.5-17.2c0-11-3.3-16.7-9.5-16.7-6.1 0-9.6 6.1-9.6 16.5z"/><path d="m508.7 55.5c-5.8 0-7.2.1-9.6.3.3-3.1.6-5.1 1.3-7.6 1.7-5.3 4.7-10.2 9.2-14.3 2.4-2.2 4.9-4.1 11.4-8.5 5.5-3.7 6.9-5.4 6.9-8.3 0-3.1-2.8-5.1-6.9-5.1-3.1 0-5.3 1-6.7 3.2-.9 1.4-1.3 2.7-1.6 5.4l-13.4-1.4c1-5.6 2.1-8.4 4.7-11.4 3.7-4.3 9.5-6.6 17-6.6 8.6 0 15.2 2.9 18.4 8.1 1.4 2.2 2.1 4.7 2.1 7.5 0 4.7-1.9 8.6-5.9 11.9-2.1 1.9-2.8 2.3-9.3 6.9-5.6 3.8-7.9 6.1-9.4 8.9h14.9c4.8 0 7.7-.1 10.2-.4v11.9c-3.7-.3-6.4-.4-11-.4h-22.3z"/><path d="m554.8 50.7c-2.1-2.1-3.7-4.5-4.7-7.1-1.7-4.5-2.5-9.5-2.5-14.7 0-6.7 1.6-13.7 4-17.7 3.9-6.5 10.6-10.1 18.6-10.1 6.2 0 11.7 2.1 15.6 6 2.1 2.1 3.7 4.5 4.7 7.1 1.7 4.5 2.5 9.5 2.5 14.7 0 6.7-1.6 13.8-4 17.8-3.8 6.4-10.6 10-18.7 10-6.3 0-11.6-2.1-15.5-6zm5.9-22.3c0 11.5 3.3 17.4 9.6 17.4s9.5-5.8 9.5-17.2c0-11-3.3-16.7-9.5-16.7-6 0-9.6 6.1-9.6 16.5z"/></g></svg>