<svg viewBox="0 0 120 120" xmlns="http://www.w3.org/2000/svg"><rect fill="#00b900" height="120" rx="26" width="120"/><path d="m103.5 54.72c0-19.55-19.6-35.45-43.7-35.45s-43.69 15.9-43.69 35.45c0 17.53 15.55 32.21 36.54 35 1.43.31 3.36.94 3.85 2.16a8.93 8.93 0 0 1 .14 4l-.64 3.67c-.19 1.1-.88 4.32 3.78 2.35s25.22-14.81 34.35-25.36c6.33-7 9.37-14 9.37-21.82" fill="#fff"/><g fill="#00b900"><path d="m50.93 45.28h-3.07a.85.85 0 0 0 -.85.85v19a.85.85 0 0 0 .85.85h3.07a.85.85 0 0 0 .85-.85v-19a.85.85 0 0 0 -.85-.85"/><path d="m72 45.28h-3a.85.85 0 0 0 -.85.85v11.31l-8.77-11.79-.06-.08-.05-.05h-.05-.05-3.3a.85.85 0 0 0 -.85.85v19a.85.85 0 0 0 .85.85h3.06a.86.86 0 0 0 .86-.85v-11.51l8.73 11.79a.63.63 0 0 0 .22.21h.05.06a.78.78 0 0 0 .15.14h3a.85.85 0 0 0 .85-.85v-19a.85.85 0 0 0 -.85-.85"/><path d="m43.54 61.25h-8.33v-15.12a.85.85 0 0 0 -.85-.85h-3.06a.85.85 0 0 0 -.85.85v19a.87.87 0 0 0 .23.59.87.87 0 0 0 .59.23h12.27a.85.85 0 0 0 .85-.85v-3a.85.85 0 0 0 -.85-.85"/><path d="m89 50a.85.85 0 0 0 .85-.85v-3.02a.85.85 0 0 0 -.85-.85h-12.3a.85.85 0 0 0 -.59.24.83.83 0 0 0 -.24.59v19a.83.83 0 0 0 .24.59.85.85 0 0 0 .59.24h12.3a.85.85 0 0 0 .85-.85v-2.99a.85.85 0 0 0 -.85-.85h-8.38v-3.25h8.38a.85.85 0 0 0 .85-.85v-3.04a.85.85 0 0 0 -.85-.85h-8.38v-3.26z"/></g></svg>