<svg enable-background="new 0 0 565 304" viewBox="0 0 565 304" xmlns="http://www.w3.org/2000/svg"><g fill="#fff"><path d="m422.1 83.4h6.5c.7 0 1.1.2 1.4.9.7 1.7 1.6 3.4 2.4 5.2 1.1-1.8 2.1-3.5 3.1-5.3.4-.6.8-.9 1.5-.9h6.7c-1.7-9.7-3.4-19.2-5.1-28.9h9.3c2.3 0 2.3 0 2.8 2.3 2.5 11.6 5 23.3 7.5 34.9.1.4.1.8.2 1.4-4.1 0-8.2 0-12.3 0-.2 0-.6-.5-.7-.8-.2-.9-.4-1.9-.6-3.2-1.6 2.9-3 5.5-4.4 8.1-.8 1.4-2 2.8-2.1 4.3 0 1.4 1.1 2.9 1.8 4.4 4.2 9 8.4 17.9 12.6 26.8.2.4.3.8.6 1.3-.7 0-1.2 0-1.7 0-3.9 0-7.9-.1-11.8 0-1 0-1.5-.4-1.8-1.3-2.3-5.7-4.6-11.4-6.9-17.2-.1-.3-.3-.6-.5-1.1-.4.5-.6.8-.9 1.1-4.3 5.8-8.6 11.7-12.8 17.5-.5.7-1 .9-1.8.9-4.6 0-9.2 0-13.7 0-.3 0-.7 0-1.2 0 .3-.5.5-.8.8-1 7.1-8.8 14.2-17.5 21.2-26.3 1.1-1.4 2-3 3-4.6.1-.2.2-.7.1-.9-1.6-4-3.3-8.1-4.9-12.1 0-.1-.1-.1-.3-.2-.4 1.1-.8 2.2-1.2 3.3-.2.7-.6 1-1.4 1-2.9 0-5.8 0-9 0v18.7c-3 0-5.7 0-8.6 0 .7-16 1.5-31.9 2.2-47.9-.6 0-1.1 0-1.8 0-2.5 23.3-4.9 46.6-7.4 70-4.4 0-8.7 0-13.1 0 2.5-23.3 5-46.6 7.5-70-.4 0-.7-.1-1.2-.1-.1.3-.2.6-.3.9-1.5 7-2.9 14-4.4 21-2.4 11.4-4.7 22.7-7.1 34.1-.1.5-.1 1.1-.9 1.1-3.6 0-7.2 0-11 0 5.4-20.6 10.7-41.2 16.1-61.8h9.3c.1-1.1.3-2.1.4-3.3-4.8 0-9.6 0-14.6 0 .6-1.7 1.1-3.2 1.7-4.7.1-.3.8-.4 1.2-.4h10.8 1.5c.6-5.8 1.3-11.6 1.9-17.4h12.8c-.6 5.8-1.2 11.5-1.9 17.3h10.1s.1-.1.1-.2c.4-1 .5-2.5 1.3-2.9.8-.5 2.2-.2 3.3-.2h12.5c.6-4.7 1.2-9.3 1.8-14h15.3c-.7 4.7-1.3 9.2-2 14h17.8c-.5 1.6-.9 3.1-1.5 4.5-.1.3-.9.5-1.3.5-8.3 0-16.6 0-24.9 0-6.5 0-13.1 0-19.6 0-.5 0-.9 0-1.3 0-.1.2-.2.2-.2.3-.4 1-.4 2.5-1.2 3-.9.5-2.3.2-3.4.2-2.4 0-4.8 0-7.3 0-.1 1.1-.2 2.1-.4 3.3h7.8v27.1c.2-.4.4-.8.6-1.3 3.7-9.6 7.5-19.3 11.2-29 .4-1 .9-1.3 1.9-1.3 3.4.1 6.8 0 10.5 0-3.5 9.7-7 19.2-10.6 28.9z"/><path d="m265.5 130.5c-3.8 0-7.4 0-11-.1-.3 0-.7-.4-.8-.8-1.7-4.1-3.3-8.2-5-12.3-.1-.2-.2-.4-.3-.7-.2.4-.4.6-.6.9-2.5 4-4.9 8.1-7.4 12.1-.4.6-.7.8-1.4.8-3.8 0-7.7 0-11.8 0 2.3-3.4 4.5-6.7 6.8-10.1-12.9 2.6-25.5 5.1-38.3 7.7.2-1.3.4-2.6.7-3.8 0-.2.4-.4.7-.4 1-.2 2.1-.4 3.2-.6 1.9-16.5 3.7-33 5.6-49.5h9.2c-1.8 15.8-3.5 31.6-5.3 47.4 1.2-.2 2.3-.4 3.5-.6 2.1-19 4.2-38 6.3-57.1-5.2 0-10.4 0-15.7 0 .4-1.3.8-2.5 1.2-3.8 12.3 0 24.6 0 37 .1-.3 1.2-.6 2.3-1 3.5-.1.2-.6.3-.9.3-3.2 0-6.4 0-9.7 0-.3 0-.7 0-1.1 0-.9 8.3-1.8 16.6-2.7 25h6c.3 0 .6-.4.7-.7 2.6-5.3 5.2-10.7 7.8-16.1 2.3-4.7 4.5-9.4 6.8-14 .2-.3.6-.8.9-.8 3.1-.1 6.1 0 9.3 0-1.9 4.2-3.7 8.2-5.6 12.4h18.4c-.4 1.2-.7 2.3-1.1 3.3-.1.2-.5.4-.7.4-2-.5-2.7.7-3.3 2.4-3.7 9.9-7.5 19.8-11.2 29.7-.2.6-.2 1 0 1.6 3.4 7.6 6.8 15.1 10.1 22.7.4.3.5.6.7 1.1zm-39-38.3c-.9 8.7-1.9 17.4-2.8 26.2 3.8-.8 7.3-1.5 11.1-2.2-.2 1.3-.3 2.4-.5 3.8.3-.3.4-.4.4-.5 3-4.4 5.9-8.8 8.9-13.2.2-.3.2-.8.1-1.1-1.3-3.4-2.7-6.7-4-10.1-.2-.6-.5-.7-1.1-.7-2 0-4 0-6 0-.7 0-1.4 0-2.1 0 .3-.8.6-1.4.9-2.2-1.7 0-3.3 0-4.9 0zm22.4 1.1c2.6-6.9 5.1-13.5 7.6-20.3-1.6 0-3.1 0-4.5 0-.6 0-.9.2-1.2.8-1.4 3.2-2.8 6.4-4.2 9.6-.7 1.5-1.4 3.1-2.1 4.7.3 0 .5.1.7 0 1-.2 1.6.2 1.9 1.2.5 1.2 1.1 2.5 1.8 4z"/><path d="m189.8 130.1c-18.6 0-37 0-55.7 0 6.7-13.9 13.4-27.7 20.1-41.7-5.2 0-10.3 0-15.6 0 .5-1.6.9-3 1.5-4.4.1-.3.8-.4 1.2-.4h15.8 1.4c1-8.1 1.9-16.1 2.9-24.1-5.5 0-11 0-16.6 0 .5-1.7 1.1-3.2 1.6-4.8h15.6c.7-6.2 1.5-12.4 2.2-18.6h15c-.7 6.2-1.5 12.3-2.2 18.6h18c-.5 1.7-1 3.2-1.5 4.8-5.7 0-11.3 0-17.1 0-1 8-1.9 16-2.9 24.1h22.9c-.5 1.7-1 3.3-1.5 4.9-2.6 0-5.1 0-7.6 0-5.4 0-10.7 0-16.1 0-.7 0-1.1.1-1.4.8-5.7 11.7-11.5 23.4-17.3 35.1-.1.2-.2.5-.3.9h21.4c-.8-3.8-4-18.5-4.7-22h14.7c.9 4.2 1.9 8.4 2.8 12.6 1.2 4.6 2.3 9.4 3.4 14.2z"/><path d="m137.5 88.2c-2.4 6.3-4.8 12.4-7.1 18.5-3 7.9-6.1 15.9-9.1 23.8-.3.8-.6 1.1-1.5 1.1-4.4-.1-8.8 0-13.2 0-.4 0-.7 0-1.2-.1.2-.5.3-.8.4-1.2 5.5-13.7 10.9-27.3 16.4-41 .3-.8.7-1.2 1.6-1.1 4.1.1 8.3 0 12.4 0z"/><path d="m275.9 130.3c.5-2.5 1-4.7 1.6-6.9.1-.3.4-.5.6-.6.3-.1.6 0 .9 0h74.6 1.4c-.6 2.5-1 4.7-1.6 6.9-.1.3-.4.5-.7.7-.2.1-.5 0-.8 0-24.9 0-49.7 0-74.6 0-.4-.1-.8-.1-1.4-.1z"/><path d="m356.7 50.9c-.6 3.1-1.1 5.9-1.7 8.8-21.8 0-43.6 0-65.5 0 .6-2.8 1.1-5.5 1.7-8.1.1-.3.4-.5.6-.6.3-.1.6 0 .9 0h62.7c.3-.1.7-.1 1.3-.1z"/><path d="m348.6 87.2c-.5 2.1-1 4.1-1.5 6-.1.2-.3.4-.5.5s-.4 0-.7 0c-18.2 0-36.4 0-54.6 0-.3 0-.7 0-1.2 0 .6-2.1 1.1-4.1 1.7-6.1 0-.2.3-.3.5-.4.3-.1.6 0 .9 0h54.1z"/><path d="m143.4 62.8c-4 0-8-.2-11.9.1-2.7.2-3.9-.8-4.8-3.2-2.5-6.3-5.3-12.4-8-18.5-.2-.4-.3-.7-.5-1.2.4 0 .7-.1 1-.1h13.4c.6 0 1 0 1.3.7 3.1 7.3 6.3 14.5 9.4 21.8 0 0 0 .1.1.4z"/><path d="m137.8 86.1c-1.5 0-2.9 0-4.2 0-3.3 0-6.7 0-10 0-.4 0-1-.3-1.2-.6-3.1-7.1-6.2-14.2-9.3-21.3 0-.1 0-.2-.1-.3h15.1c3.2 7.2 6.4 14.6 9.7 22.2z"/><path d="m563.2 197.5c-2.4 22.2-4.8 44.4-7.3 66.6-21 0-42.1 0-63.2 0 3.5-27.4 7.1-54.8 10.6-82.4 20.6 0 41.1 0 61.7-.1-.6 5.3-1.2 10.6-1.8 15.9zm-14.5-10.3c-10.3 0-20.4 0-30.5 0-2.8 23.8-5.5 47.6-8.2 71.4h30c2.9-23.8 5.8-47.6 8.7-71.4z"/><path d="m104.9 190.8h64c-2.7 24.4-5.5 48.8-8.2 73.3-9.6 0-19.3 0-29 0-.3-1.3-.5-2.7-.8-4.1h18.1c2.5-21.7 4.9-43.4 7.4-65.1-13.3 0-26.5 0-39.8 0-2.6 23.7-5.2 47.4-7.8 71.2-4 0-8 0-12.1 0 2.8-25.2 5.5-50.2 8.2-75.3z"/><path d="m435.9 214.8c-5.5 0-10.9 0-16.5 0 1.3-11.1 2.6-22.1 3.9-33.2h60.2c-.2 1.6-.3 3.1-.5 4.7-.7 6.5-1.5 13-2.3 19.5-.2 1.9-.4 3.9-.7 5.8-.1.4-.4.9-.7 1.2-12.5 12.6-24.9 25.2-37.4 37.8-2.5 2.6-5.2 5-7.8 7.5.1.1.1.3.2.4h44.8c-.6 1.8-1.1 3.5-1.6 5.1-.1.2-.4.4-.7.5-.2.1-.4 0-.6 0-21 0-42 0-63 0-.3 0-.6 0-1.2 0 1.1-2.5 1.3-5.1 3.3-7.2 16.1-16.1 32.1-32.4 48.1-48.6.7-.7 1.1-1.4 1.3-2.5.8-6.3 1.7-12.5 2.6-18.9-9.7 0-19.2 0-29 0-.8 9.5-1.6 18.7-2.4 27.9z"/><path d="m267.2 195.9c2.1 10.7 4.1 21.2 6.2 31.8-5.5 0-10.7 0-16 0-1.5-9.5-3-19.1-4.5-28.7-.1 0-.2 0-.3-.1-.5 1.4-1.1 2.8-1.6 4.3-2.7 7.3-5.3 14.7-8 22-.3.7-.4 1.2-1.4 1.2-9.4 0-18.9 0-28.3 0-.2 0-.5 0-.8-.1-1-9.1-1.9-18.2-2.9-27.4-.1 0-.2 0-.3-.1-.2.3-.3.7-.5 1-3.5 8.8-7 17.7-10.5 26.5-.4 1-.8 1.4-1.9 1.4-5.8-.1-11.6 0-17.6 0 .2-.5.4-1 .5-1.4 7.1-15.4 14.1-30.8 21.2-46.2.4-1 1-1.3 2-1.3 4.3.1 8.6 0 13 0 .5 0 .9 0 1.6.1-2.2 5.7-4.4 11.2-6.7 16.9h12.8c1.2 8.9 2.4 17.7 3.6 26.5h.3c.2-.4.4-.8.5-1.2 5.4-13.6 10.8-27.3 16.1-40.9.4-1.1 1-1.4 2.2-1.4 4.1.1 8.3 0 12.4 0h1.6c-2.1 5.7-4.1 11.3-6.1 17 4.4.1 8.8.1 13.4.1z"/><path d="m84.2 215.7c-2 16.4-3.9 32.7-5.9 49.1-23.1 0-46 0-69.1 0 2-16.4 3.9-32.7 5.9-49.1zm-22.6 43.3c1.6-12.7 3.2-25.3 4.8-37.9-11.9 0-23.5 0-35.1 0-1.5 12.7-3 25.2-4.5 37.9z"/><path d="m0 211.4c5.6-6.4 11-12.7 16.5-19 9-10.4 18-20.8 27-31.2.7-.8 1.4-1.1 2.5-1.1 5.4.1 10.9 0 16.3 0h1.7c-1.9 2.3-3.6 4.3-5.4 6.6.7 0 1.1.1 1.5.1h8.5c.5 0 1.2.3 1.4.7 9.6 14.5 19.1 29 28.6 43.5.1.1.1.2.3.6-.6 0-1 0-1.5 0-5.7 0-11.5 0-17.2 0-1.2 0-1.9-.3-2.5-1.4-7.4-12.5-14.9-25.1-22.4-37.6-.2-.4-.5-.7-.8-1.2-2.3 2.8-4.5 5.4-6.7 8.1-8.6 10.4-17.2 20.8-25.8 31.2-.3.4-1 .9-1.5.9-6.7.1-13.4 0-20 0 0-.1-.2-.1-.5-.2z"/><path d="m317 190.1c-3.5 0-6.8 0-10.2 0 .4-1.5.7-2.8 1.1-4.2.1-.3.8-.6 1.2-.6h21.1 4.3c-.2.5-.3.8-.4 1.1-10.3 25.9-20.6 51.8-30.9 77.8-.2.4-.6.9-.9 1-5.3.1-10.7 0-16.2 0 10.4-25.1 20.6-50 30.9-75.1z"/><path d="m148.7 212.9c-1.6 13.7-3.1 27.3-4.6 41-9.5 0-19 0-28.6 0 1.6-13.7 3.2-27.3 4.7-41zm-18.3 3.7c-1.3 11.2-2.6 22.4-3.8 33.6h6.9c1.3-11.2 2.6-22.4 3.8-33.6-2.3 0-4.6 0-6.9 0z"/><path d="m372.8 263.9c-10 0-20 0-30 0 .3-1.6.6-3.1 1-4.8h10.9c-4.7-20-9.3-39.9-13.9-59.8.4 0 .6-.1.9-.1 4.2 0 8.4.1 12.6.1.8 0 1.1.2 1.4 1 5.6 20.9 11.2 41.7 16.9 62.5 0 .4.1.7.2 1.1z"/><path d="m233.7 243.2c-.9 8-1.8 15.9-2.8 23.8-6.6 0-13.1 0-19.7 0 .9-7.9 1.8-15.7 2.7-23.8-14.2 0-28.4 0-42.7 0 .5-1.8 1-3.4 1.5-5 .1-.3.6-.6 1-.7s.9 0 1.4 0h37.6 1.8c.3-2.3.6-4.5.8-6.7.1-1.2.4-1.7 1.8-1.7 5.5.1 11.1 0 16.7 0h1.6c-.3 2.8-.7 5.5-1 8.3h43.4c-.6 1.9-1 3.6-1.6 5.3-.1.3-.9.5-1.4.5-7.9 0-15.8 0-23.6 0-5.3 0-10.5 0-15.8 0-.5 0-1.1 0-1.7 0z"/><path d="m183.5 175.1c.6-1.9 1.1-3.6 1.7-5.2.1-.4.9-.6 1.5-.6h32.3c.5 0 1-.1 1.4 0 1.3.2 1.8-.3 1.9-1.7.5-4.6 1.1-9.1 1.7-13.7 0-.3.2-.6.3-1h19.5c-.7 5.4-1.3 10.7-2 16.2h39c-.6 2-1 3.7-1.6 5.4-.1.2-.5.4-.8.4-.3.1-.7 0-1 0-30.7 0-61.5 0-92.2 0-.6.2-1 .2-1.7.2z"/><path d="m398.2 169.4h15.8c-.2 1.5-.3 3-.5 4.5s-.5 2.9-.5 4.4c-.1 1.4-.6 2.6-1.3 3.8-3.9 6.3-7.7 12.5-11.5 18.8-.4.6-.8.9-1.5.9-1.8-.1-3.7 0-5.8 0 3.6-5.5 7.1-10.8 10.7-16.3-2.5 0-4.9 0-7.4 0 .8-5.4 1.4-10.7 2-16.1z"/><path d="m378.1 175.8c-1 7.2-2 14.2-3 21.3-7.2 0-14.2 0-21.4 0 1-7.2 2-14.2 3-21.3zm-8.3 4.4c-2.1 0-4.2 0-6.3 0-.6 4.2-1.1 8.3-1.7 12.5h5.5c.2 0 .6-.3.7-.6.7-3.9 1.2-7.8 1.8-11.9z"/><path d="m117.5 206.4c.4-1.2.7-2.3 1.1-3.4.1-.2.6-.5.9-.5h7.5 25.1 1.2c-.4 1.2-.7 2.4-1.2 3.4-.1.3-.7.4-1.1.4-5.8 0-11.7 0-17.5 0-4.9 0-9.9 0-14.8 0-.4.1-.7.1-1.2.1z"/><path d="m71 201.4c-.5 1.7-.9 3.3-1.4 4.8-.1.3-.8.5-1.3.5-7 0-14.1 0-21.1 0-5.2 0-10.5 0-15.7 0-.5 0-1 0-1.6 0 .6-1.7 1-3.3 1.6-4.9.1-.2.7-.4 1.1-.4h10.8 26z"/><path d="m62.9 95.9 7.5 15.2 16.8 2.4-12.2 11.9 2.9 16.7-15-7.9-15 7.9 2.8-16.7-12.1-11.9 16.8-2.4z"/><path d="m29.8 77.1 4.5 9.1 10 1.5-7.2 7 1.7 10-9-4.7-9 4.7 1.7-10-7.2-7 10-1.5z"/><path d="m498.9 103-7.5 15.2-16.7 2.4 12.1 11.8-2.9 16.8 15-7.9 15.1 7.9-2.9-16.8 12.1-11.8-16.7-2.4z"/><path d="m534 86.2-4.5 9.1-10 1.4 7.3 7.1-1.7 10 8.9-4.7 9 4.7-1.7-10 7.3-7.1-10.1-1.4z"/></g></svg>