<?xml version="1.0" encoding="utf-8"?>
<!-- Generator: Adobe Illustrator 24.0.1, SVG Export Plug-In . SVG Version: 6.00 Build 0)  -->
<svg version="1.1" id="レイヤー_1" xmlns="http://www.w3.org/2000/svg" xmlns:xlink="http://www.w3.org/1999/xlink" x="0px"
	 y="0px" viewBox="0 0 565 304" style="enable-background:new 0 0 565 304;" xml:space="preserve">
<style type="text/css">
	.st0{fill:#FFFFFF;}
</style>
<path class="st0" d="M422.1,83.4c2.3,0,4.4,0,6.5,0c0.7,0,1.1,0.2,1.4,0.9c0.7,1.7,1.6,3.4,2.4,5.2c1.1-1.8,2.1-3.5,3.1-5.3
	c0.4-0.6,0.8-0.9,1.5-0.9c2.2,0,4.4,0,6.7,0c-1.7-9.7-3.4-19.2-5.1-28.9c3.2,0,6.2,0,9.3,0c2.3,0,2.3,0,2.8,2.3
	c2.5,11.6,5,23.3,7.5,34.9c0.1,0.4,0.1,0.8,0.2,1.4c-4.1,0-8.2,0-12.3,0c-0.2,0-0.6-0.5-0.7-0.8c-0.2-0.9-0.4-1.9-0.6-3.2
	c-1.6,2.9-3,5.5-4.4,8.1c-0.8,1.4-2,2.8-2.1,4.3c0,1.4,1.1,2.9,1.8,4.4c4.2,9,8.4,17.9,12.6,26.8c0.2,0.4,0.3,0.8,0.6,1.3
	c-0.7,0-1.2,0-1.7,0c-3.9,0-7.9-0.1-11.8,0c-1,0-1.5-0.4-1.8-1.3c-2.3-5.7-4.6-11.4-6.9-17.2c-0.1-0.3-0.3-0.6-0.5-1.1
	c-0.4,0.5-0.6,0.8-0.9,1.1c-4.3,5.8-8.6,11.7-12.8,17.5c-0.5,0.7-1,0.9-1.8,0.9c-4.6,0-9.2,0-13.7,0c-0.3,0-0.7,0-1.2,0
	c0.3-0.5,0.5-0.8,0.8-1c7.1-8.8,14.2-17.5,21.2-26.3c1.1-1.4,2-3,3-4.6c0.1-0.2,0.2-0.7,0.1-0.9c-1.6-4-3.3-8.1-4.9-12.1
	c0-0.1-0.1-0.1-0.3-0.2c-0.4,1.1-0.8,2.2-1.2,3.3c-0.2,0.7-0.6,1-1.4,1c-2.9,0-5.8,0-9,0c0,6.3,0,12.5,0,18.7c-3,0-5.7,0-8.6,0
	c0.7-16,1.5-31.9,2.2-47.9c-0.6,0-1.1,0-1.8,0c-2.5,23.3-4.9,46.6-7.4,70c-4.4,0-8.7,0-13.1,0c2.5-23.3,5-46.6,7.5-70
	c-0.4,0-0.7-0.1-1.2-0.1c-0.1,0.3-0.2,0.6-0.3,0.9c-1.5,7-2.9,14-4.4,21c-2.4,11.4-4.7,22.7-7.1,34.1c-0.1,0.5-0.1,1.1-0.9,1.1
	c-3.6,0-7.2,0-11,0c5.4-20.6,10.7-41.2,16.1-61.8c3.1,0,6.2,0,9.3,0c0.1-1.1,0.3-2.1,0.4-3.3c-4.8,0-9.6,0-14.6,0
	c0.6-1.7,1.1-3.2,1.7-4.7c0.1-0.3,0.8-0.4,1.2-0.4c3.6,0,7.2,0,10.8,0c0.5,0,0.9,0,1.5,0c0.6-5.8,1.3-11.6,1.9-17.4
	c4.3,0,8.5,0,12.8,0c-0.6,5.8-1.2,11.5-1.9,17.3c3.5,0,6.7,0,10.1,0c0,0,0.1-0.1,0.1-0.2c0.4-1,0.5-2.5,1.3-2.9
	c0.8-0.5,2.2-0.2,3.3-0.2c4.1,0,8.2,0,12.5,0c0.6-4.7,1.2-9.3,1.8-14c5.1,0,10.2,0,15.3,0c-0.7,4.7-1.3,9.2-2,14c6,0,11.8,0,17.8,0
	c-0.5,1.6-0.9,3.1-1.5,4.5c-0.1,0.3-0.9,0.5-1.3,0.5c-8.3,0-16.6,0-24.9,0c-6.5,0-13.1,0-19.6,0c-0.5,0-0.9,0-1.3,0
	c-0.1,0.2-0.2,0.2-0.2,0.3c-0.4,1-0.4,2.5-1.2,3c-0.9,0.5-2.3,0.2-3.4,0.2c-2.4,0-4.8,0-7.3,0c-0.1,1.1-0.2,2.1-0.4,3.3
	c2.6,0,5.2,0,7.8,0c0,9.1,0,18,0,27.1c0.2-0.4,0.4-0.8,0.6-1.3c3.7-9.6,7.5-19.3,11.2-29c0.4-1,0.9-1.3,1.9-1.3
	c3.4,0.1,6.8,0,10.5,0C429.2,64.2,425.7,73.7,422.1,83.4z"/>
<path class="st0" d="M265.5,130.5c-3.8,0-7.4,0-11-0.1c-0.3,0-0.7-0.4-0.8-0.8c-1.7-4.1-3.3-8.2-5-12.3c-0.1-0.2-0.2-0.4-0.3-0.7
	c-0.2,0.4-0.4,0.6-0.6,0.9c-2.5,4-4.9,8.1-7.4,12.1c-0.4,0.6-0.7,0.8-1.4,0.8c-3.8,0-7.7,0-11.8,0c2.3-3.4,4.5-6.7,6.8-10.1
	c-12.9,2.6-25.5,5.1-38.3,7.7c0.2-1.3,0.4-2.6,0.7-3.8c0-0.2,0.4-0.4,0.7-0.4c1-0.2,2.1-0.4,3.2-0.6c1.9-16.5,3.7-33,5.6-49.5
	c3.1,0,6.2,0,9.2,0c-1.8,15.8-3.5,31.6-5.3,47.4c1.2-0.2,2.3-0.4,3.5-0.6c2.1-19,4.2-38,6.3-57.1c-5.2,0-10.4,0-15.7,0
	c0.4-1.3,0.8-2.5,1.2-3.8c12.3,0,24.6,0,37,0.1c-0.3,1.2-0.6,2.3-1,3.5c-0.1,0.2-0.6,0.3-0.9,0.3c-3.2,0-6.4,0-9.7,0
	c-0.3,0-0.7,0-1.1,0c-0.9,8.3-1.8,16.6-2.7,25c2.1,0,4,0,6,0c0.3,0,0.6-0.4,0.7-0.7c2.6-5.3,5.2-10.7,7.8-16.1
	c2.3-4.7,4.5-9.4,6.8-14c0.2-0.3,0.6-0.8,0.9-0.8c3.1-0.1,6.1,0,9.3,0c-1.9,4.2-3.7,8.2-5.6,12.4c6.2,0,12.3,0,18.4,0
	c-0.4,1.2-0.7,2.3-1.1,3.3c-0.1,0.2-0.5,0.4-0.7,0.4c-2-0.5-2.7,0.7-3.3,2.4c-3.7,9.9-7.5,19.8-11.2,29.7c-0.2,0.6-0.2,1,0,1.6
	c3.4,7.6,6.8,15.1,10.1,22.7C265.2,129.7,265.3,130,265.5,130.5z M226.5,92.2c-0.9,8.7-1.9,17.4-2.8,26.2c3.8-0.8,7.3-1.5,11.1-2.2
	c-0.2,1.3-0.3,2.4-0.5,3.8c0.3-0.3,0.4-0.4,0.4-0.5c3-4.4,5.9-8.8,8.9-13.2c0.2-0.3,0.2-0.8,0.1-1.1c-1.3-3.4-2.7-6.7-4-10.1
	c-0.2-0.6-0.5-0.7-1.1-0.7c-2,0-4,0-6,0c-0.7,0-1.4,0-2.1,0c0.3-0.8,0.6-1.4,0.9-2.2C229.7,92.2,228.1,92.2,226.5,92.2z M248.9,93.3
	c2.6-6.9,5.1-13.5,7.6-20.3c-1.6,0-3.1,0-4.5,0c-0.6,0-0.9,0.2-1.2,0.8c-1.4,3.2-2.8,6.4-4.2,9.6c-0.7,1.5-1.4,3.1-2.1,4.7
	c0.3,0,0.5,0.1,0.7,0c1-0.2,1.6,0.2,1.9,1.2C247.6,90.5,248.2,91.8,248.9,93.3z"/>
<path class="st0" d="M189.8,130.1c-18.6,0-37,0-55.7,0c6.7-13.9,13.4-27.7,20.1-41.7c-5.2,0-10.3,0-15.6,0c0.5-1.6,0.9-3,1.5-4.4
	c0.1-0.3,0.8-0.4,1.2-0.4c5.3,0,10.5,0,15.8,0c0.4,0,0.9,0,1.4,0c1-8.1,1.9-16.1,2.9-24.1c-5.5,0-11,0-16.6,0
	c0.5-1.7,1.1-3.2,1.6-4.8c5.2,0,10.3,0,15.6,0c0.7-6.2,1.5-12.4,2.2-18.6c5,0,9.9,0,15,0c-0.7,6.2-1.5,12.3-2.2,18.6
	c6,0,11.9,0,18,0c-0.5,1.7-1,3.2-1.5,4.8c-5.7,0-11.3,0-17.1,0c-1,8-1.9,16-2.9,24.1c7.6,0,15.2,0,22.9,0c-0.5,1.7-1,3.3-1.5,4.9
	c-2.6,0-5.1,0-7.6,0c-5.4,0-10.7,0-16.1,0c-0.7,0-1.1,0.1-1.4,0.8c-5.7,11.7-11.5,23.4-17.3,35.1c-0.1,0.2-0.2,0.5-0.3,0.9
	c7.1,0,14.1,0,21.4,0c-0.8-3.8-4-18.5-4.7-22c4.9,0,9.8,0,14.7,0c0.9,4.2,1.9,8.4,2.8,12.6C187.6,120.5,188.7,125.3,189.8,130.1z"/>
<path class="st0" d="M137.5,88.2c-2.4,6.3-4.8,12.4-7.1,18.5c-3,7.9-6.1,15.9-9.1,23.8c-0.3,0.8-0.6,1.1-1.5,1.1
	c-4.4-0.1-8.8,0-13.2,0c-0.4,0-0.7,0-1.2-0.1c0.2-0.5,0.3-0.8,0.4-1.2c5.5-13.7,10.9-27.3,16.4-41c0.3-0.8,0.7-1.2,1.6-1.1
	c4.1,0.1,8.3,0,12.4,0C136.6,88.2,136.9,88.2,137.5,88.2z"/>
<path class="st0" d="M275.9,130.3c0.5-2.5,1-4.7,1.6-6.9c0.1-0.3,0.4-0.5,0.6-0.6c0.3-0.1,0.6,0,0.9,0c24.9,0,49.7,0,74.6,0
	c0.4,0,0.9,0,1.4,0c-0.6,2.5-1,4.7-1.6,6.9c-0.1,0.3-0.4,0.5-0.7,0.7c-0.2,0.1-0.5,0-0.8,0c-24.9,0-49.7,0-74.6,0
	C276.9,130.3,276.5,130.3,275.9,130.3z"/>
<path class="st0" d="M356.7,50.9c-0.6,3.1-1.1,5.9-1.7,8.8c-21.8,0-43.6,0-65.5,0c0.6-2.8,1.1-5.5,1.7-8.1c0.1-0.3,0.4-0.5,0.6-0.6
	c0.3-0.1,0.6,0,0.9,0c20.9,0,41.8,0,62.7,0C355.7,50.9,356.1,50.9,356.7,50.9z"/>
<path class="st0" d="M348.6,87.2c-0.5,2.1-1,4.1-1.5,6c-0.1,0.2-0.3,0.4-0.5,0.5s-0.4,0-0.7,0c-18.2,0-36.4,0-54.6,0
	c-0.3,0-0.7,0-1.2,0c0.6-2.1,1.1-4.1,1.7-6.1c0-0.2,0.3-0.3,0.5-0.4c0.3-0.1,0.6,0,0.9,0c18,0,36,0,54.1,0
	C347.6,87.2,348,87.2,348.6,87.2z"/>
<path class="st0" d="M143.4,62.8c-4,0-8-0.2-11.9,0.1c-2.7,0.2-3.9-0.8-4.8-3.2c-2.5-6.3-5.3-12.4-8-18.5c-0.2-0.4-0.3-0.7-0.5-1.2
	c0.4,0,0.7-0.1,1-0.1c4.5,0,8.9,0,13.4,0c0.6,0,1,0,1.3,0.7c3.1,7.3,6.3,14.5,9.4,21.8C143.3,62.4,143.3,62.5,143.4,62.8z"/>
<path class="st0" d="M137.8,86.1c-1.5,0-2.9,0-4.2,0c-3.3,0-6.7,0-10,0c-0.4,0-1-0.3-1.2-0.6c-3.1-7.1-6.2-14.2-9.3-21.3
	c0-0.1,0-0.2-0.1-0.3c5,0,10,0,15.1,0C131.3,71.1,134.5,78.5,137.8,86.1z"/>
<path class="st0" d="M563.2,197.5c-2.4,22.2-4.8,44.4-7.3,66.6c-21,0-42.1,0-63.2,0c3.5-27.4,7.1-54.8,10.6-82.4
	c20.6,0,41.1,0,61.7-0.1C564.4,186.9,563.8,192.2,563.2,197.5z M548.7,187.2c-10.3,0-20.4,0-30.5,0c-2.8,23.8-5.5,47.6-8.2,71.4
	c10.1,0,20,0,30,0C542.9,234.8,545.8,211,548.7,187.2z"/>
<path class="st0" d="M104.9,190.8c21.4,0,42.7,0,64,0c-2.7,24.4-5.5,48.8-8.2,73.3c-9.6,0-19.3,0-29,0c-0.3-1.3-0.5-2.7-0.8-4.1
	c6.1,0,12.1,0,18.1,0c2.5-21.7,4.9-43.4,7.4-65.1c-13.3,0-26.5,0-39.8,0c-2.6,23.7-5.2,47.4-7.8,71.2c-4,0-8,0-12.1,0
	C99.5,240.9,102.2,215.9,104.9,190.8z"/>
<path class="st0" d="M435.9,214.8c-5.5,0-10.9,0-16.5,0c1.3-11.1,2.6-22.1,3.9-33.2c20.1,0,40.1,0,60.2,0c-0.2,1.6-0.3,3.1-0.5,4.7
	c-0.7,6.5-1.5,13-2.3,19.5c-0.2,1.9-0.4,3.9-0.7,5.8c-0.1,0.4-0.4,0.9-0.7,1.2c-12.5,12.6-24.9,25.2-37.4,37.8
	c-2.5,2.6-5.2,5-7.8,7.5c0.1,0.1,0.1,0.3,0.2,0.4c14.9,0,29.8,0,44.8,0c-0.6,1.8-1.1,3.5-1.6,5.1c-0.1,0.2-0.4,0.4-0.7,0.5
	c-0.2,0.1-0.4,0-0.6,0c-21,0-42,0-63,0c-0.3,0-0.6,0-1.2,0c1.1-2.5,1.3-5.1,3.3-7.2c16.1-16.1,32.1-32.4,48.1-48.6
	c0.7-0.7,1.1-1.4,1.3-2.5c0.8-6.3,1.7-12.5,2.6-18.9c-9.7,0-19.2,0-29,0C437.5,196.4,436.7,205.6,435.9,214.8z"/>
<path class="st0" d="M267.2,195.9c2.1,10.7,4.1,21.2,6.2,31.8c-5.5,0-10.7,0-16,0c-1.5-9.5-3-19.1-4.5-28.7c-0.1,0-0.2,0-0.3-0.1
	c-0.5,1.4-1.1,2.8-1.6,4.3c-2.7,7.3-5.3,14.7-8,22c-0.3,0.7-0.4,1.2-1.4,1.2c-9.4,0-18.9,0-28.3,0c-0.2,0-0.5,0-0.8-0.1
	c-1-9.1-1.9-18.2-2.9-27.4c-0.1,0-0.2,0-0.3-0.1c-0.2,0.3-0.3,0.7-0.5,1c-3.5,8.8-7,17.7-10.5,26.5c-0.4,1-0.8,1.4-1.9,1.4
	c-5.8-0.1-11.6,0-17.6,0c0.2-0.5,0.4-1,0.5-1.4c7.1-15.4,14.1-30.8,21.2-46.2c0.4-1,1-1.3,2-1.3c4.3,0.1,8.6,0,13,0
	c0.5,0,0.9,0,1.6,0.1c-2.2,5.7-4.4,11.2-6.7,16.9c4.4,0,8.5,0,12.8,0c1.2,8.9,2.4,17.7,3.6,26.5c0.1,0,0.2,0,0.3,0
	c0.2-0.4,0.4-0.8,0.5-1.2c5.4-13.6,10.8-27.3,16.1-40.9c0.4-1.1,1-1.4,2.2-1.4c4.1,0.1,8.3,0,12.4,0c0.5,0,0.9,0,1.6,0
	c-2.1,5.7-4.1,11.3-6.1,17C258.2,195.9,262.6,195.9,267.2,195.9z"/>
<path class="st0" d="M84.2,215.7c-2,16.4-3.9,32.7-5.9,49.1c-23.1,0-46,0-69.1,0c2-16.4,3.9-32.7,5.9-49.1
	C38.1,215.7,61.1,215.7,84.2,215.7z M61.6,259c1.6-12.7,3.2-25.3,4.8-37.9c-11.9,0-23.5,0-35.1,0c-1.5,12.7-3,25.2-4.5,37.9
	C38.4,259,49.9,259,61.6,259z"/>
<path class="st0" d="M0,211.4c5.6-6.4,11-12.7,16.5-19c9-10.4,18-20.8,27-31.2c0.7-0.8,1.4-1.1,2.5-1.1c5.4,0.1,10.9,0,16.3,0
	c0.4,0,0.9,0,1.7,0c-1.9,2.3-3.6,4.3-5.4,6.6c0.7,0,1.1,0.1,1.5,0.1c2.8,0,5.7,0,8.5,0c0.5,0,1.2,0.3,1.4,0.7
	c9.6,14.5,19.1,29,28.6,43.5c0.1,0.1,0.1,0.2,0.3,0.6c-0.6,0-1,0-1.5,0c-5.7,0-11.5,0-17.2,0c-1.2,0-1.9-0.3-2.5-1.4
	c-7.4-12.5-14.9-25.1-22.4-37.6c-0.2-0.4-0.5-0.7-0.8-1.2c-2.3,2.8-4.5,5.4-6.7,8.1c-8.6,10.4-17.2,20.8-25.8,31.2
	c-0.3,0.4-1,0.9-1.5,0.9c-6.7,0.1-13.4,0-20,0C0.5,211.5,0.3,211.5,0,211.4z"/>
<path class="st0" d="M317,190.1c-3.5,0-6.8,0-10.2,0c0.4-1.5,0.7-2.8,1.1-4.2c0.1-0.3,0.8-0.6,1.2-0.6c7,0,14,0,21.1,0
	c1.4,0,2.7,0,4.3,0c-0.2,0.5-0.3,0.8-0.4,1.1c-10.3,25.9-20.6,51.8-30.9,77.8c-0.2,0.4-0.6,0.9-0.9,1c-5.3,0.1-10.7,0-16.2,0
	C296.5,240.1,306.7,215.2,317,190.1z"/>
<path class="st0" d="M148.7,212.9c-1.6,13.7-3.1,27.3-4.6,41c-9.5,0-19,0-28.6,0c1.6-13.7,3.2-27.3,4.7-41
	C129.7,212.9,139.1,212.9,148.7,212.9z M130.4,216.6c-1.3,11.2-2.6,22.4-3.8,33.6c2.3,0,4.6,0,6.9,0c1.3-11.2,2.6-22.4,3.8-33.6
	C135,216.6,132.7,216.6,130.4,216.6z"/>
<path class="st0" d="M372.8,263.9c-10,0-20,0-30,0c0.3-1.6,0.6-3.1,1-4.8c3.6,0,7.2,0,10.9,0c-4.7-20-9.3-39.9-13.9-59.8
	c0.4,0,0.6-0.1,0.9-0.1c4.2,0,8.4,0.1,12.6,0.1c0.8,0,1.1,0.2,1.4,1c5.6,20.9,11.2,41.7,16.9,62.5
	C372.6,263.2,372.7,263.5,372.8,263.9z"/>
<path class="st0" d="M233.7,243.2c-0.9,8-1.8,15.9-2.8,23.8c-6.6,0-13.1,0-19.7,0c0.9-7.9,1.8-15.7,2.7-23.8c-14.2,0-28.4,0-42.7,0
	c0.5-1.8,1-3.4,1.5-5c0.1-0.3,0.6-0.6,1-0.7c0.4-0.1,0.9,0,1.4,0c12.5,0,25,0,37.6,0c0.6,0,1.1,0,1.8,0c0.3-2.3,0.6-4.5,0.8-6.7
	c0.1-1.2,0.4-1.7,1.8-1.7c5.5,0.1,11.1,0,16.7,0c0.5,0,0.9,0,1.6,0c-0.3,2.8-0.7,5.5-1,8.3c14.5,0,28.8,0,43.4,0
	c-0.6,1.9-1,3.6-1.6,5.3c-0.1,0.3-0.9,0.5-1.4,0.5c-7.9,0-15.8,0-23.6,0c-5.3,0-10.5,0-15.8,0C234.9,243.2,234.3,243.2,233.7,243.2z
	"/>
<path class="st0" d="M183.5,175.1c0.6-1.9,1.1-3.6,1.7-5.2c0.1-0.4,0.9-0.6,1.5-0.6c10.8,0,21.5,0,32.3,0c0.5,0,1-0.1,1.4,0
	c1.3,0.2,1.8-0.3,1.9-1.7c0.5-4.6,1.1-9.1,1.7-13.7c0-0.3,0.2-0.6,0.3-1c6.4,0,12.8,0,19.5,0c-0.7,5.4-1.3,10.7-2,16.2
	c12.9,0,25.8,0,39,0c-0.6,2-1,3.7-1.6,5.4c-0.1,0.2-0.5,0.4-0.8,0.4c-0.3,0.1-0.7,0-1,0c-30.7,0-61.5,0-92.2,0
	C184.6,175.1,184.2,175.1,183.5,175.1z"/>
<path class="st0" d="M398.2,169.4c5.3,0,10.5,0,15.8,0c-0.2,1.5-0.3,3-0.5,4.5s-0.5,2.9-0.5,4.4c-0.1,1.4-0.6,2.6-1.3,3.8
	c-3.9,6.3-7.7,12.5-11.5,18.8c-0.4,0.6-0.8,0.9-1.5,0.9c-1.8-0.1-3.7,0-5.8,0c3.6-5.5,7.1-10.8,10.7-16.3c-2.5,0-4.9,0-7.4,0
	C397,180.1,397.6,174.8,398.2,169.4z"/>
<path class="st0" d="M378.1,175.8c-1,7.2-2,14.2-3,21.3c-7.2,0-14.2,0-21.4,0c1-7.2,2-14.2,3-21.3
	C363.9,175.8,370.9,175.8,378.1,175.8z M369.8,180.2c-2.1,0-4.2,0-6.3,0c-0.6,4.2-1.1,8.3-1.7,12.5c2,0,3.7,0,5.5,0
	c0.2,0,0.6-0.3,0.7-0.6C368.7,188.2,369.2,184.3,369.8,180.2z"/>
<path class="st0" d="M117.5,206.4c0.4-1.2,0.7-2.3,1.1-3.4c0.1-0.2,0.6-0.5,0.9-0.5c2.5,0,5,0,7.5,0c8.4,0,16.7,0,25.1,0
	c0.4,0,0.7,0,1.2,0c-0.4,1.2-0.7,2.4-1.2,3.4c-0.1,0.3-0.7,0.4-1.1,0.4c-5.8,0-11.7,0-17.5,0c-4.9,0-9.9,0-14.8,0
	C118.3,206.4,118,206.4,117.5,206.4z"/>
<path class="st0" d="M71,201.4c-0.5,1.7-0.9,3.3-1.4,4.8c-0.1,0.3-0.8,0.5-1.3,0.5c-7,0-14.1,0-21.1,0c-5.2,0-10.5,0-15.7,0
	c-0.5,0-1,0-1.6,0c0.6-1.7,1-3.3,1.6-4.9c0.1-0.2,0.7-0.4,1.1-0.4c3.6,0,7.2,0,10.8,0c8.7,0,17.3,0,26,0
	C69.9,201.4,70.4,201.4,71,201.4z"/>
<polygon class="st0" points="62.9,95.9 70.4,111.1 87.2,113.5 75,125.4 77.9,142.1 62.9,134.2 47.9,142.1 50.7,125.4 38.6,113.5 
	55.4,111.1 "/>
<polygon class="st0" points="29.8,77.1 34.3,86.2 44.3,87.7 37.1,94.7 38.8,104.7 29.8,100 20.8,104.7 22.5,94.7 15.3,87.7 
	25.3,86.2 "/>
<polygon class="st0" points="498.9,103 491.4,118.2 474.7,120.6 486.8,132.4 483.9,149.2 498.9,141.3 514,149.2 511.1,132.4 
	523.2,120.6 506.5,118.2 "/>
<polygon class="st0" points="534,86.2 529.5,95.3 519.5,96.7 526.8,103.8 525.1,113.8 534,109.1 543,113.8 541.3,103.8 548.6,96.7 
	538.5,95.3 "/>
</svg>
